<?xml version="1.0" encoding="UTF-8"?>
<svg version="1.1" xmlns="http://www.w3.org/2000/svg" width="512" height="512">
<path d="M0 0 C1.30831787 -0.00137466 2.61663574 -0.00274933 3.96459961 -0.00416565 C5.41770958 -0.00062648 6.87081932 0.00300833 8.32392883 0.00672913 C9.8514455 0.00701115 11.3789623 0.00685297 12.90647888 0.00628662 C17.05700714 0.00599923 21.20750661 0.01188665 25.35802817 0.01886058 C29.69421986 0.02510371 34.03041218 0.02569868 38.36660767 0.02688599 C46.57947695 0.02999646 54.79233296 0.03820605 63.00519639 0.04823548 C72.35454212 0.05940539 81.70388848 0.06490928 91.05323923 0.06993091 C110.2871127 0.08038889 129.5209738 0.09798287 148.75483704 0.12025452 C148.76070328 0.98896683 148.76656952 1.85767914 148.77261353 2.75271606 C148.83090381 11.00397397 148.9031829 19.25497158 148.99055195 27.50597477 C149.03497545 31.74627791 149.07429022 35.98649113 149.10127258 40.22694397 C149.12758907 44.33148382 149.16818273 48.43567222 149.2180233 52.53999138 C149.23450303 54.0933483 149.2461333 55.64676573 149.25245094 57.20019722 C149.33957243 76.68226197 152.30115888 94.34879737 166.43843079 108.94056702 C181.50583649 123.11866547 196.83081053 126.5579266 216.89155579 126.63197327 C218.62462614 126.64884918 220.35768446 126.66700326 222.09072876 126.68637085 C226.61644227 126.73356117 231.14210702 126.76356973 235.66798401 126.78981018 C240.30054856 126.81977331 244.93294556 126.86624888 249.56538391 126.91127014 C258.62844674 126.99695018 267.69154439 127.06445108 276.75483704 127.12025452 C276.82494415 156.15350228 276.87783361 185.18673734 276.91027355 214.22005272 C276.91333304 216.90472292 276.91645701 219.58939304 276.91963196 222.27406311 C276.92041889 222.94133771 276.92120582 223.60861232 276.9220166 224.29610737 C276.93505648 235.08847644 276.95870248 245.88079739 276.98629542 256.67313795 C277.01438914 267.75408281 277.03079724 278.83500809 277.03710252 289.91598761 C277.04101058 296.13706215 277.05018419 302.35802766 277.07202721 308.57906723 C277.09243104 314.43783678 277.09866289 320.29645266 277.09416008 326.15525436 C277.09498353 328.30221391 277.10092582 330.44917873 277.11245346 332.59610748 C277.12745845 335.53552604 277.12376142 338.47437025 277.11560059 341.4138031 C277.12433911 342.2562471 277.13307763 343.09869111 277.14208096 343.96666372 C277.05952328 355.02648596 273.54274654 363.14918332 265.90327454 371.03041077 C259.35636193 377.17303195 251.48464754 381.23661101 242.38623619 381.25168228 C241.51359009 381.25552343 240.64094399 381.25936457 239.74185407 381.26332211 C238.31045731 381.26202239 238.31045731 381.26202239 236.85014343 381.26069641 C235.32426824 381.26515309 235.32426824 381.26515309 233.76756728 381.26969981 C230.34843929 381.27839262 226.9293463 381.27989557 223.51020813 381.28138733 C221.06281967 381.28601514 218.61543194 381.29103975 216.16804504 381.2964325 C209.51079665 381.30956325 202.85356197 381.31603972 196.19630384 381.32044315 C192.03727179 381.32320735 187.87824206 381.32744508 183.71921158 381.33194733 C172.19833459 381.34414015 160.67745946 381.35443873 149.15657616 381.35782242 C148.41932945 381.35804198 147.68208274 381.35826155 146.92249522 381.35848777 C145.81401022 381.35881519 145.81401022 381.35881519 144.68313158 381.35914922 C143.18571178 381.35959268 141.68829199 381.36003924 140.19087219 381.36048889 C139.44810361 381.36071032 138.70533503 381.36093175 137.94005831 381.36115989 C125.91283449 381.3651053 113.88567135 381.38255139 101.85847096 381.40584841 C89.50273804 381.42958804 77.14703553 381.44202549 64.79127944 381.44319034 C57.8571051 381.44410575 50.92300979 381.449824 43.98885727 381.46800995 C37.46357252 381.48506346 30.93841099 381.48664403 24.4131012 381.47787094 C22.02103397 381.47710075 19.62895868 381.48144083 17.23691177 381.49132919 C13.96490766 381.50405936 10.69343331 381.49816561 7.4214325 381.48774719 C6.48055231 381.4958036 5.53967213 381.50386 4.57028043 381.51216054 C-6.51200539 381.42994603 -15.89996348 378.14042151 -23.99906921 370.45619202 C-33.12164618 360.4419346 -34.54699606 349.28786214 -34.50585938 336.19769287 C-34.50968492 334.9041326 -34.51351047 333.61057232 -34.51745194 332.27781326 C-34.52770816 328.70279514 -34.52555621 325.12787759 -34.52127135 321.55285132 C-34.51879977 317.69111217 -34.52782368 313.82939695 -34.53530884 309.96766663 C-34.54804623 302.40779724 -34.5498507 294.84796338 -34.54750858 287.28808507 C-34.54572405 281.14134074 -34.54747794 274.99460719 -34.55173302 268.84786415 C-34.55232821 267.97233451 -34.55292339 267.09680487 -34.55353662 266.19474402 C-34.5547484 264.41597034 -34.55596253 262.63719665 -34.557179 260.85842297 C-34.568051 244.18348407 -34.56589375 227.5085654 -34.55979415 210.83362535 C-34.55462626 195.590237 -34.56587766 180.34691258 -34.58489237 165.10353687 C-34.60428076 149.44012255 -34.61252495 133.77673846 -34.60876912 118.11331207 C-34.60685847 109.32414351 -34.60933126 100.53502934 -34.62348366 91.74587059 C-34.63541125 84.26283161 -34.63678697 76.7798805 -34.62469349 69.29684027 C-34.61881424 65.48178782 -34.61767878 61.66689598 -34.62969589 57.85185432 C-34.64259338 53.70903196 -34.63206752 49.56659009 -34.61938477 45.42376709 C-34.62675905 44.22783469 -34.63413334 43.0319023 -34.64173108 41.79972953 C-34.55995617 29.07707141 -31.70732887 18.89650662 -23.05766296 9.43275452 C-16.71580405 3.34178232 -8.71231468 -0.0070431 0 0 Z M32.44233704 165.68275452 C29.60525769 169.78075802 29.08440169 173.18842193 29.75483704 178.12025452 C32.45028568 183.22235374 35.27626814 186.29406488 40.75483704 188.12025452 C42.91008754 188.22981176 45.06855853 188.27925722 47.22651672 188.29725647 C48.20517197 188.30711327 48.20517197 188.30711327 49.20359802 188.31716919 C51.36130394 188.33686733 53.51894031 188.34855797 55.67671204 188.35853577 C56.78480099 188.36464906 56.78480099 188.36464906 57.91527557 188.37088585 C61.82663695 188.39173344 65.7379634 188.40603984 69.64936829 188.41542053 C73.67884768 188.42647215 77.7077729 188.4608607 81.73705673 188.50059223 C84.84442636 188.52680499 87.95166498 188.53511654 91.05913544 188.53870201 C92.54382818 188.54355731 94.02851549 188.55514115 95.51309967 188.57374001 C106.33458567 188.85171415 106.33458567 188.85171415 115.75483704 184.12025452 C118.74786916 180.56236093 119.75483704 177.10752571 119.75483704 172.49525452 C118.28037656 167.51895042 116.54571091 164.20594767 112.0370636 161.47264099 C108.40437969 159.97585444 105.84279365 159.74001491 101.92671204 159.73207092 C101.27223083 159.72681396 100.61774963 159.72155701 99.94343567 159.71614075 C97.79698765 159.70302196 95.65129156 159.71164915 93.50483704 159.72181702 C92.003208 159.71979393 90.50157992 159.71688053 88.99995422 159.71311951 C85.85955918 159.70870718 82.71942088 159.71509174 79.57905579 159.72914124 C75.56417907 159.74623274 71.5499041 159.73638566 67.53504944 159.71842384 C64.43626922 159.7075563 61.33763043 159.71104589 58.23884583 159.71880722 C56.758946 159.72080103 55.27903312 159.71837885 53.79914856 159.71136856 C51.72674295 159.70370467 49.65529664 159.71542541 47.58296204 159.73207092 C46.40637024 159.7344577 45.22977844 159.73684448 44.01753235 159.73930359 C39.030652 160.32156963 35.79454311 161.96814779 32.44233704 165.68275452 Z M32.37983704 233.68275452 C29.61406599 237.83141109 29.23224459 241.18888221 29.75483704 246.12025452 C31.78572514 250.82336382 35.19061942 253.83814571 39.75483704 256.12025452 C41.88238157 256.2210191 44.01315889 256.25538284 46.14308167 256.26069641 C46.80617615 256.26366753 47.46927064 256.26663866 48.15245891 256.26969981 C50.38483976 256.27840389 52.6171671 256.2798965 54.8495636 256.28138733 C56.44601558 256.28601436 58.04246644 256.29103887 59.63891602 256.2964325 C63.98410277 256.30957114 68.32927406 256.31600451 72.67447758 256.32044315 C75.38852968 256.32337204 78.10257753 256.32747653 80.8166275 256.33194733 C89.30621485 256.34562725 97.79579253 256.355291 106.28539014 256.35914922 C116.08881872 256.36362878 125.89210778 256.38116985 135.69549394 256.41014981 C143.27009055 256.43176451 150.84464792 256.44185342 158.41927505 256.44319034 C162.94445513 256.44423869 167.46950415 256.45015263 171.99465179 256.46800995 C176.2529517 256.48448657 180.511022 256.48664816 184.76934242 256.47787094 C186.33101071 256.4771003 187.89269132 256.48144694 189.45432854 256.49132919 C191.58937791 256.50404589 193.72361377 256.49817414 195.85865784 256.48774719 C197.64949232 256.48994703 197.64949232 256.48994703 199.47650528 256.49219131 C204.58123939 255.91304356 207.7700398 254.29136474 211.06733704 250.37025452 C213.26569145 246.13638675 214.4702329 242.78673 213.19624329 238.03822327 C211.24747349 233.36983696 209.10821271 231.23383634 204.42657661 228.97761345 C198.59888455 227.10751208 192.33349307 227.57671876 186.2702179 227.61854553 C184.70405594 227.61475803 183.13789735 227.60925443 181.57174683 227.60217285 C177.33620483 227.5882583 173.10107088 227.59935917 168.86555171 227.61588407 C164.42455556 227.6297762 159.98358209 227.62326985 155.54257202 227.61975098 C148.08713741 227.61705242 140.63186412 227.63049486 133.1764679 227.65370178 C124.56605108 227.68031906 115.95590375 227.6820542 107.34545988 227.67031342 C99.04913519 227.65952242 90.75290764 227.66573245 82.45659065 227.6798687 C78.93162798 227.68561605 75.40673669 227.6855557 71.88177299 227.6808033 C67.72922364 227.6760197 63.5769682 227.6861922 59.42447472 227.70775795 C57.90355165 227.71330684 56.38260022 227.71380859 54.86167526 227.70880508 C52.7797957 227.70281665 50.69880418 227.71542359 48.61700439 227.73257446 C47.45395247 227.73500436 46.29090055 227.73743425 45.09260464 227.73993778 C39.91498333 228.32989378 35.99891517 229.77795968 32.37983704 233.68275452 Z M32.25483704 301.68275452 C29.67840285 305.86946007 29.11985411 309.23441368 29.75483704 314.12025452 C31.52199747 318.97994571 34.12132713 321.84951739 38.75483704 324.12025452 C41.44744815 324.56813608 41.44744815 324.56813608 44.32696533 324.50793457 C45.99027138 324.52279152 45.99027138 324.52279152 47.68717957 324.53794861 C48.8940744 324.53344696 50.10096924 324.52894531 51.34443665 324.52430725 C53.26228218 324.53460213 53.26228218 324.53460213 55.21887207 324.54510498 C58.71894014 324.563027 62.21875738 324.56186987 65.71885753 324.5561626 C68.64379252 324.55306924 71.56867943 324.55916484 74.49360758 324.56520134 C81.39542212 324.57924189 88.29711287 324.57768933 95.19892883 324.56629944 C102.31258628 324.55481917 109.42586667 324.56889313 116.53947443 324.59569591 C122.6534458 324.61786737 128.76729895 324.62448705 134.88130766 324.6186195 C138.53010403 324.61525207 142.17865873 324.61765044 145.82742119 324.63487053 C149.89713721 324.65323952 153.9661217 324.63913789 158.0358429 324.6219635 C159.2407135 324.63163147 160.44558411 324.64129944 161.68696594 324.65126038 C169.38759695 324.58313974 173.0061145 323.73971076 178.56733704 318.37025452 C180.3153014 315.05832203 180.86220284 311.82079578 180.75483704 308.12025452 C178.9991441 302.85317572 176.18771812 300.22327127 171.75483704 297.12025452 C168.32023706 296.2101169 165.08740286 295.99164398 161.54457092 295.97981262 C160.00135918 295.97124741 160.00135918 295.97124741 158.42697144 295.96250916 C157.30894638 295.9613913 156.19092133 295.96027344 155.03901672 295.9591217 C153.85305405 295.9541568 152.66709137 295.94919189 151.44519043 295.94407654 C148.19911213 295.93199282 144.95306978 295.9245162 141.70697308 295.92006588 C139.67548282 295.91712774 137.64399812 295.91302153 135.61251068 295.90856171 C129.24639086 295.89489797 122.88028384 295.88522603 116.51415038 295.88135982 C109.18412362 295.87688281 101.85428367 295.85934694 94.52431369 295.83035922 C88.84598373 295.80868858 83.16770613 295.79865266 77.4893353 295.7973187 C74.10371022 295.79627444 70.71826101 295.79044813 67.33267975 295.77249908 C63.55105529 295.75540001 59.76988316 295.75732867 55.98823547 295.7638092 C54.87830734 295.75459442 53.76837921 295.74537964 52.62481689 295.73588562 C45.13255795 295.77600297 37.72323255 296.07764912 32.25483704 301.68275452 Z " fill="#000000" transform="translate(168.2451629638672,31.879745483398438)"/>
<path d="M0 0 C1.89492187 0.01353516 1.89492187 0.01353516 3.828125 0.02734375 C4.79234375 0.03894531 5.7565625 0.05054687 6.75 0.0625 C6.75146521 0.94958104 6.75146521 0.94958104 6.75296003 1.85458291 C6.81129562 36.94409791 6.88514034 72.03354717 6.97898628 107.12298561 C6.99025377 111.34094193 7.00139233 115.55889859 7.01245117 119.77685547 C7.01465486 120.61653649 7.01685854 121.45621751 7.019129 122.32134341 C7.05445301 135.89804798 7.07934474 149.47475249 7.10034702 163.05148591 C7.12214815 176.99368315 7.15523934 190.93582102 7.19870156 204.87796772 C7.22514416 213.47351816 7.24289388 222.06899471 7.24934604 230.66458379 C7.25462263 236.56755735 7.27091529 242.4704381 7.29566566 248.37336184 C7.3096035 251.77357927 7.31724138 255.17349043 7.31500816 258.57375717 C7.30429473 282.42105527 9.00139332 301.86181042 25.7734375 320.28515625 C41.0074434 334.98115822 59.79976786 336.512187 79.84863281 336.49487305 C81.96860827 336.50390175 84.08857852 336.51423168 86.20854187 336.52575684 C91.93286929 336.5532226 97.65709737 336.56259718 103.38148212 336.56861091 C109.37527173 336.57802177 115.36898793 336.60422732 121.36273193 336.62861633 C132.6989688 336.67221051 144.03519136 336.70080096 155.37148643 336.72393972 C168.28329064 336.75102938 181.19502074 336.79493856 194.10677195 336.84022844 C220.6544744 336.93297328 247.20220008 337.0047005 273.75 337.0625 C273.78230325 339.11838465 273.80520375 341.17441825 273.82421875 343.23046875 C273.83799561 344.37539795 273.85177246 345.52032715 273.8659668 346.69995117 C273.54056706 356.13517342 269.51223689 363.92403942 263.25 370.8125 C262.425 371.555 261.6 372.2975 260.75 373.0625 C260.028125 373.743125 259.30625 374.42375 258.5625 375.125 C251.12635462 380.24767793 243.81841868 381.65333723 234.93395996 381.57043457 C233.3697683 381.57979451 233.3697683 381.57979451 231.7739768 381.58934355 C228.30416118 381.60520908 224.83505434 381.59269408 221.36523438 381.58007812 C218.86769707 381.58550208 216.37016296 381.59262626 213.87263489 381.60131836 C207.80789758 381.61763402 201.74343509 381.615288 195.67870867 381.6036678 C190.74718963 381.59461227 185.81572603 381.5934186 180.88420105 381.59776306 C179.82898857 381.59868246 179.82898857 381.59868246 178.75245866 381.59962043 C177.3230963 381.60089941 175.89373395 381.60219626 174.46437162 381.6035108 C161.07997967 381.6149007 147.69569753 381.60182793 134.31132358 381.58030933 C122.84177144 381.56243976 111.37238126 381.56554432 99.90283203 381.58398438 C86.56438931 381.60541927 73.2260427 381.61380221 59.88758516 381.60153532 C58.46365644 381.6002612 57.0397277 381.59900372 55.61579895 381.59776306 C54.91530783 381.59714596 54.21481671 381.59652886 53.49309859 381.59589306 C48.57091157 381.59244799 43.64878581 381.59825023 38.72660828 381.60768127 C32.09448564 381.62011003 25.46262063 381.61118584 18.83051109 381.58810425 C16.39974664 381.58282531 13.9689564 381.5843169 11.53820229 381.59315491 C8.21380406 381.60412567 4.89037682 381.59032702 1.56604004 381.57043457 C0.13167673 381.5838189 0.13167673 381.5838189 -1.33166361 381.59747362 C-11.35351021 381.48157929 -19.90059334 377.88921179 -27.25 371.0625 C-36.06742863 361.77562494 -37.84930727 350.98218771 -37.75120544 338.58262634 C-37.75673984 337.26537947 -37.76227424 335.94813259 -37.76797634 334.59096915 C-37.7826367 330.96367045 -37.77260661 327.33681005 -37.75823963 323.70952594 C-37.74707972 319.78649833 -37.7590889 315.86352971 -37.76808167 311.94050598 C-37.78198173 304.26703311 -37.77448211 296.59372531 -37.75940608 288.92026036 C-37.74250701 279.97696892 -37.74576113 271.03371815 -37.74950016 262.09041566 C-37.75537274 246.12982391 -37.74123041 230.16931117 -37.71655273 214.20874023 C-37.69262972 198.73442626 -37.68555083 183.26021782 -37.69604492 167.78588867 C-37.70746312 150.91878361 -37.70937336 134.0517273 -37.69494683 117.18462282 C-37.69342105 115.38493352 -37.69190069 113.5852442 -37.69038582 111.78555489 C-37.689628 110.90016337 -37.68887019 110.01477185 -37.68808941 109.10255028 C-37.68335387 102.87391608 -37.68519281 96.64530371 -37.68945122 90.41666985 C-37.69438599 82.82313771 -37.6883573 75.2297052 -37.66855692 67.63619583 C-37.65870897 63.76454829 -37.65355273 59.89305218 -37.66144943 56.02139664 C-37.66984466 51.81925176 -37.6548807 47.61750805 -37.63768005 43.41539001 C-37.64669512 41.59100958 -37.64669512 41.59100958 -37.65589231 39.72977298 C-37.56493461 27.50018477 -34.94768734 18.97213947 -26.3984375 10.15234375 C-18.66821169 2.89948248 -10.49704197 -0.09719483 0 0 Z " fill="#000000" transform="translate(104.25,98.9375)"/>
<path d="M0 0 C7.85007204 1.20770339 13.38223626 8.08565104 18.69580078 13.40527344 C19.54856598 14.25132141 20.40133118 15.09736938 21.27993774 15.96905518 C23.60601247 18.27943792 25.9275173 20.59428276 28.2463975 22.91188335 C29.69832493 24.36238447 31.15166925 25.81145018 32.60552597 27.2600174 C37.68559889 32.32161784 42.76051008 37.38832763 47.83056641 42.45996094 C52.54413939 47.17473541 57.26875409 51.87823928 61.99868786 56.57659507 C66.0705588 60.62225446 70.13461989 64.67564913 74.19276798 68.73507333 C76.61164967 71.15446311 79.03348268 73.57069782 81.46323013 75.97917938 C84.1727633 78.66908114 86.86928713 81.37140486 89.56298828 84.07714844 C90.3620459 84.86496704 91.16110352 85.65278564 91.984375 86.46447754 C96.48687913 91.01821289 99.47624476 95.1008653 102 101 C92.67202737 101.0930829 83.34421704 101.16395774 74.01587963 101.20724869 C69.6833513 101.22803651 65.35114302 101.25619092 61.01879883 101.30175781 C56.83014639 101.34553275 52.64179989 101.36920315 48.45293617 101.37950897 C46.86268619 101.38684404 45.27245109 101.40116625 43.68233299 101.42292023 C30.27437479 101.59889203 20.10469002 100.02817698 10.16015625 90.3515625 C0.19540047 79.50385367 -0.44692133 66.98326622 -0.29296875 52.83203125 C-0.28736027 51.30076009 -0.28309611 49.76948347 -0.28010559 48.23820496 C-0.26875514 44.24495074 -0.23937493 40.25203382 -0.20599365 36.25891113 C-0.17507897 32.1693986 -0.16155495 28.07983055 -0.14648438 23.99023438 C-0.11449369 15.99333632 -0.06341916 7.99671034 0 0 Z " fill="#000000" transform="translate(340,35)"/>
</svg>
