<?xml version="1.0" encoding="UTF-8"?>
<svg class="theme-icon" viewBox="0 0 512 512" xmlns="http://www.w3.org/2000/svg">
    <path d="M0 0 C1.94949337 3.55495849 0.43115303 7.44741993 -0.49609375 11.1953125 C-3.53863425 24.2467621 -0.66655266 33.72041212 6.30078125 44.9296875 C19.97628164 63.30481806 49.48051809 68.26904837 70.47265625 72.26171875 C73.0625 72.9375 73.0625 72.9375 75.0625 74.9375 C75.24194336 77.35742188 75.24194336 77.35742188 75.15234375 80.40625 C75.12994629 81.52588135 75.10754883 82.6455127 75.08447266 83.79907227 C75.05659668 84.99975342 75.0287207 86.20043457 75 87.4375 C74.67185974 119.85733115 84.69164067 147.92487905 107.1875 171.5 C112.31087774 176.5422883 117.95210295 180.72047649 123.93212891 184.70336914 C128.87839049 188.16072337 128.87839049 188.16072337 129.7578125 191.87109375 C128.90914659 195.61380576 127.28957853 198.49490346 125.25 201.6875 C117.35071878 214.75056741 115.03523863 228.99655327 118.5625 243.9375 C118.98015625 245.54625 118.98015625 245.54625 119.40625 247.1875 C120.0625 249.9375 120.0625 249.9375 120.0625 252.9375 C120.65933594 252.91429687 121.25617188 252.89109375 121.87109375 252.8671875 C126.44193645 252.77210311 130.84623456 252.85500174 135.3671875 253.55859375 C136.48395874 253.72609131 136.48395874 253.72609131 137.62329102 253.89697266 C139.1017676 254.12877111 140.5767595 254.38427708 142.04663086 254.66552734 C145.83354632 255.24812972 147.80918035 255.07780988 151.1796875 253.2109375 C156.19146713 248.31628328 158.86396532 241.28147804 161.94335938 235.10351562 C165.77382479 227.67995264 170.23874282 221.90513745 176.0625 215.9375 C177.00881621 214.91609125 177.95219902 213.89194392 178.890625 212.86328125 C179.68984375 212.00089844 180.4890625 211.13851562 181.3125 210.25 C187.72048957 203.28141145 193.94156761 196.15907711 200.0625 188.9375 C200.55331055 188.36225586 201.04412109 187.78701172 201.54980469 187.19433594 C220.02143104 165.39606598 238.500738 139.20654584 244.73828125 110.8671875 C244.94839844 109.96226563 245.15851563 109.05734375 245.375 108.125 C245.51550781 107.35542969 245.65601563 106.58585937 245.80078125 105.79296875 C247.59254565 103.15802111 249.74605528 102.94177956 252.75756836 102.33813477 C253.5181958 102.20592529 254.27882324 102.07371582 255.0625 101.9375 C256.13286499 101.72468384 256.13286499 101.72468384 257.22485352 101.50756836 C272.10295218 98.72165527 287.10638732 98.61271256 302.1875 98.5625 C303.15198059 98.55482605 304.11646118 98.5471521 305.11016846 98.53924561 C322.93915889 98.42613814 341.06446883 99.43681043 358.1875 104.8125 C359.05238037 105.07297119 359.91726074 105.33344238 360.80834961 105.60180664 C385.41418307 113.17265471 405.20016228 126.21599771 417.625 149.1875 C419.96330787 154.0831308 420.68222426 157.56655638 420.0625 162.9375 C416.37904149 165.30412209 413.35680098 165.04945598 409.0625 164.875 C396.37659155 164.60919707 384.49504631 167.95312823 375.01953125 176.625 C367.29476844 185.75286344 364.16501117 197.18657638 363.50390625 208.89453125 C362.88476895 211.76009591 362.2465377 212.92700018 360.0625 214.9375 C357.18143062 215.88457784 354.23834528 216.32653335 351.25 216.8125 C329.54665084 220.89484063 310.50125749 232.73745338 297.8984375 251.1015625 C297.29257812 252.03742188 296.68671875 252.97328125 296.0625 253.9375 C295.45664062 254.87335938 294.85078125 255.80921875 294.2265625 256.7734375 C286.41501913 269.49704308 282.37353487 282.52393816 279.15405273 296.98925781 C278.92403564 297.98924805 278.69401855 298.98923828 278.45703125 300.01953125 C278.25956299 300.91905518 278.06209473 301.8185791 277.85864258 302.74536133 C277.0625 304.9375 277.0625 304.9375 274.0625 306.9375 C271.8125 306.94921875 271.8125 306.94921875 269.0625 306.625 C242.72283984 304.02276851 215.14932345 303.78500784 193.2578125 321.1640625 C191.1328234 323.03749525 189.07046037 324.93991669 187.0625 326.9375 C187.33320313 327.61425781 187.60390625 328.29101562 187.8828125 328.98828125 C188.27210938 329.96152344 188.66140625 330.93476563 189.0625 331.9375 C189.73925781 333.59845703 189.73925781 333.59845703 190.4296875 335.29296875 C193.2657861 342.41974361 195.64372295 349.50681587 197.3125 357 C197.46315918 357.66990967 197.61381836 358.33981934 197.76904297 359.0300293 C201.00035328 374.42146184 201.58551367 389.82122386 202.01611328 405.48461914 C202.45782273 420.89816302 203.80651249 434.57723409 214.0625 446.9375 C225.14145576 457.06108438 236.49578285 459.09416721 251.0625 458.9375 C262.79865578 458.27204787 276.23053976 455.14242085 284.63671875 446.27734375 C286.52858253 443.17261387 286.83206719 440.09536688 287.3125 436.5625 C290.63334219 416.9957951 303.01824264 405.43829923 317.64453125 393.13671875 C319.20357951 391.85194826 319.20357951 391.85194826 321.0625 389.9375 C324.5625 389.6875 324.5625 389.6875 328.0625 389.9375 C330.0625 391.9375 330.0625 391.9375 330.29296875 395.578125 C330.29094457 397.11464876 330.27578596 398.65119129 330.25 400.1875 C330.23598145 401.40215942 330.23598145 401.40215942 330.22167969 402.64135742 C330.18431657 405.07403152 330.12694312 407.50540654 330.0625 409.9375 C330.03285156 411.20722656 330.00320313 412.47695313 329.97265625 413.78515625 C329.15239322 431.53084663 322.52656479 444.59151086 309.83203125 456.625 C303.42668513 462.42478078 296.24854394 467.1728998 289.0625 471.9375 C288.03769531 472.64003906 287.01289063 473.34257812 285.95703125 474.06640625 C263.36084033 489.16313986 233.19378183 490.27710292 207.05395508 485.34765625 C185.99678951 480.87939803 162.45647113 470.52845669 150.0625 451.9375 C149.546875 452.618125 149.03125 453.29875 148.5 454 C146.0625 455.9375 146.0625 455.9375 142.9375 456 C138.03825622 454.94788474 133.11496101 452.87127434 129.0625 449.9375 C126.6887495 445.50024602 126.89604746 441.84784999 127.0625 436.9375 C126.85753906 437.50339844 126.65257812 438.06929688 126.44140625 438.65234375 C126.17199219 439.38582031 125.90257812 440.11929687 125.625 440.875 C125.35816406 441.60589844 125.09132812 442.33679688 124.81640625 443.08984375 C124.0625 444.9375 124.0625 444.9375 123.0625 445.9375 C116.87699312 446.37932192 111.73780967 445.5043413 106.0625 442.9375 C102.66144921 439.53644921 103.69344081 434.86303776 103.6875 430.25 C103.66300781 429.26837891 103.63851562 428.28675781 103.61328125 427.27539062 C103.57956324 418.89646585 105.83424549 414.47281814 111.0625 407.9375 C110.41023437 407.76734375 109.75796875 407.5971875 109.0859375 407.421875 C108.21195313 407.17953125 107.33796875 406.9371875 106.4375 406.6875 C105.57898438 406.45546875 104.72046875 406.2234375 103.8359375 405.984375 C97.72323438 403.67704481 94.10310532 400.16592113 90.3125 394.9375 C89.55453125 393.90625 88.7965625 392.875 88.015625 391.8125 C84.38989769 386.4754294 83.13220765 382.43967306 84.0625 375.9375 C85.63090292 370.36038302 87.58008633 364.94105423 89.5625 359.5 C90.35066138 357.29973618 91.13485391 355.09812081 91.91638184 352.89549255 C92.40134912 351.53269728 92.89085687 350.17150738 93.38537598 348.81214905 C94.64587303 345.46008577 94.64587303 345.46008577 95.0625 341.9375 C93.91673404 340.88994255 92.7185644 339.89940283 91.5 338.9375 C78.77338754 328.02577417 70.15371507 308.98905505 67.51171875 292.5 C66.62622158 286.53637165 66.62622158 286.53637165 62.7734375 282.19140625 C51.93743339 277.26993269 38.82848026 275.75772459 27.0625 274.9375 C26.8975 275.88625 26.7325 276.835 26.5625 277.8125 C24.16666517 285.93536468 18.08951093 291.53402879 11.0625 295.8125 C5.17136506 299.44412369 2.08843049 303.59210241 -1.4140625 309.49609375 C-2.9375 311.9375 -2.9375 311.9375 -4.9375 312.9375 C-12.24839819 312.89122849 -20.29403013 312.20250701 -26.9375 308.9375 C-30.99180448 304.402959 -31.06436231 300.23028409 -30.921875 294.40234375 C-30.90669327 293.65593124 -30.89151154 292.90951874 -30.87586975 292.14048767 C-30.82196678 289.71833991 -30.75682331 287.29675383 -30.6875 284.875 C-30.66416595 284.05316223 -30.64083191 283.23132446 -30.61679077 282.38458252 C-29.8324139 256.3422498 -25.89479546 227.39740585 -6.875 207.74609375 C0.18849411 201.15254986 0.18849411 201.15254986 5.875 200.5 C9.0625 200.9375 9.0625 200.9375 11.0625 202.9375 C12.41416637 206.69710182 12.39698888 210.7328154 12.625 214.6875 C12.66818359 215.38488281 12.71136719 216.08226562 12.75585938 216.80078125 C12.86139596 218.51281922 12.9623991 220.22513561 13.0625 221.9375 C14.0525 221.6075 15.0425 221.2775 16.0625 220.9375 C17.747071 220.82009878 19.43638877 220.76243455 21.125 220.75 C22.00285156 220.73582031 22.88070312 220.72164062 23.78515625 220.70703125 C26.0625 220.9375 26.0625 220.9375 28.0625 222.9375 C28.26396402 226.631007 28.23603189 229.41690432 27.0625 232.9375 C33.0025 233.5975 38.9425 234.2575 45.0625 234.9375 C24.97148111 184.18840262 -6.19188174 131.64119629 -57.375 107.25 C-58.73407471 106.66424194 -58.73407471 106.66424194 -60.12060547 106.06665039 C-63.56193342 104.45088496 -66.19254975 103.18303457 -68.18041992 99.859375 C-70.56492273 92.93594401 -70.4378417 85.55696941 -70.375 78.3125 C-70.36597656 77.07209961 -70.35695313 75.83169922 -70.34765625 74.55371094 C-69.97226569 54.62151477 -63.87824909 36.70771793 -49.58203125 22.48046875 C-48.70933594 21.64128906 -47.83664063 20.80210938 -46.9375 19.9375 C-46.28136719 19.27363281 -45.62523438 18.60976563 -44.94921875 17.92578125 C-36.7821124 10.14342081 -26.44618694 5.21304194 -15.9375 1.4375 C-15.23181885 1.18218506 -14.5261377 0.92687012 -13.79907227 0.66381836 C-9.22604018 -0.88740556 -4.46511698 -2.44861254 0 0 Z M-37.9375 26.9375 C-38.67226563 27.58074219 -39.40703125 28.22398438 -40.1640625 28.88671875 C-50.76506509 38.76089675 -58.38778066 53.0459297 -59.06689453 67.73657227 C-59.06802246 68.73229248 -59.06915039 69.7280127 -59.0703125 70.75390625 C-59.07160156 71.84767578 -59.07289062 72.94144531 -59.07421875 74.06835938 C-59.07035156 75.20080078 -59.06648438 76.33324219 -59.0625 77.5 C-59.06636719 78.63630859 -59.07023437 79.77261719 -59.07421875 80.94335938 C-59.07292969 82.03583984 -59.07164063 83.12832031 -59.0703125 84.25390625 C-59.06918457 85.24849854 -59.06805664 86.24309082 -59.06689453 87.26782227 C-58.94855919 89.7093259 -58.82938964 91.66440706 -57.9375 93.9375 C-55.44917724 95.43532535 -53.05004507 96.69724124 -50.4375 97.9375 C-26.75574747 109.86110947 -6.25237039 128.18588345 10.0625 148.9375 C10.84238281 149.90042969 11.62226562 150.86335937 12.42578125 151.85546875 C32.64820671 177.3028271 48.62237608 207.82235472 58.0625 238.9375 C59.7125 239.2675 61.3625 239.5975 63.0625 239.9375 C60.65416524 230.09626519 57.0640674 220.82747865 53.29492188 211.4375 C52.85083984 210.28507813 52.40675781 209.13265625 51.94921875 207.9453125 C51.53889404 206.91035645 51.12856934 205.87540039 50.70581055 204.80908203 C49.94883578 201.43013051 50.47452871 199.95530436 52.0625 196.9375 C54.0425 196.9375 56.0225 196.9375 58.0625 196.9375 C61.64542631 203.01115219 63.8463096 209.2054724 65.76171875 215.9453125 C66.25450388 217.60847514 66.74867102 219.27122886 67.24414062 220.93359375 C68.00811618 223.49782611 68.74908837 226.05900845 69.42504883 228.64794922 C71.86445524 238.66535436 71.86445524 238.66535436 78.08599854 246.50036621 C82.52166878 249.05129612 87.17675111 250.81723561 92.07209778 252.27560425 C94.0625 252.9375 94.0625 252.9375 96.14213562 254.01907349 C98.84555146 255.31199936 100.86789841 254.91304781 103.8125 254.5625 C104.79734375 254.45164062 105.7821875 254.34078125 106.796875 254.2265625 C107.91835938 254.08347656 107.91835938 254.08347656 109.0625 253.9375 C108.8459375 253.02871094 108.629375 252.11992187 108.40625 251.18359375 C104.19481123 232.17362707 106.03249578 215.72011661 114.0625 197.9375 C114.73744235 196.27416749 115.40678838 194.60850703 116.0625 192.9375 C115.37027344 192.44443359 115.37027344 192.44443359 114.6640625 191.94140625 C88.05440608 172.5363406 71.69500701 146.27605087 65.3125 114.1640625 C63.69133593 103.78410921 63.8710346 93.41491211 64.0625 82.9375 C60.03195368 81.74678382 55.99546053 80.66337989 51.91015625 79.67578125 C30.10932063 74.34974003 5.89548925 66.55066188 -6.65625 46.36328125 C-12.43296123 35.42627614 -13.10206379 25.09693528 -12.9375 12.9375 C-20.38131575 12.9375 -32.59818855 22.14610916 -37.9375 26.9375 Z M256.0625 112.9375 C255.89234375 113.48986328 255.7221875 114.04222656 255.546875 114.61132812 C251.69293038 126.98290035 247.39952984 138.62137528 241.0625 149.9375 C240.71993164 150.55254395 240.37736328 151.16758789 240.02441406 151.80126953 C231.7698478 166.44485469 221.94697146 180.14215748 211.0625 192.9375 C210.19052345 193.9823368 209.3194714 195.02794566 208.44921875 196.07421875 C203.93121636 201.48663573 199.33126116 206.8068208 194.5625 212 C193.87776611 212.75289307 193.87776611 212.75289307 193.17919922 213.52099609 C191.00310761 215.89847803 188.79486375 218.19071274 186.453125 220.40625 C178.48225927 228.23562107 173.54234412 237.50678502 168.45214844 247.33032227 C164.49610013 254.84094929 160.90080596 261.46660043 153.140625 265.4296875 C149.22222782 266.07612358 145.69609632 265.65146335 141.8125 265.0625 C130.97274396 263.63896172 119.94923534 263.11731593 109.0625 264.4375 C108.3921875 264.51871094 107.721875 264.59992188 107.03125 264.68359375 C105.65311944 264.86132884 104.27807796 265.06397384 102.90625 265.28515625 C96.19750045 265.90012496 91.32963485 263.37622932 85.50683594 260.42724609 C78.64298491 257.03077741 71.57635768 254.53131813 64.3125 252.125 C63.20076416 251.7525415 62.08902832 251.38008301 60.94360352 250.99633789 C50.73415312 247.66311722 40.51915071 244.75323134 29.75 244.25 C27.83767578 244.15138672 27.83767578 244.15138672 25.88671875 244.05078125 C24.95472656 244.01339844 24.02273437 243.97601563 23.0625 243.9375 C22.56878906 244.93652344 22.07507813 245.93554688 21.56640625 246.96484375 C20.91937605 248.2682814 20.27223489 249.57166398 19.625 250.875 C19.29951172 251.53435547 18.97402344 252.19371094 18.63867188 252.87304688 C16.17578125 257.82421875 16.17578125 257.82421875 15.0625 258.9375 C12.625 259.125 12.625 259.125 10.0625 258.9375 C9.4025 258.2775 8.7425 257.6175 8.0625 256.9375 C8.1992441 250.78401552 10.69055793 245.46404442 13.00390625 239.828125 C14.23444089 236.98105443 14.23444089 236.98105443 14.0625 233.9375 C8.44452113 235.29943427 5.23705325 239.36866405 2.0625 243.9375 C-0.65915467 249.52351782 -1.54351949 255.65972837 -2.5078125 261.75 C-2.9375 263.9375 -2.9375 263.9375 -3.9375 264.9375 C-6.27047433 264.97842937 -8.60455225 264.97991723 -10.9375 264.9375 C-12.87366577 255.52132691 -10.61040378 245.31453483 -5.9375 236.9375 C-4.74703073 235.56950461 -3.51664015 234.23528704 -2.25 232.9375 C1.32176445 229.18178201 1.9618904 226.13247083 2.28515625 221.0390625 C2.26189132 218.71777685 2.26189132 218.71777685 0.0625 216.9375 C-12.92417487 233.35834118 -18.74818869 254.09049153 -19.25390625 274.83984375 C-19.27468735 275.5624086 -19.29546844 276.28497345 -19.31687927 277.0294342 C-19.38165426 279.3112037 -19.4409203 281.59307667 -19.5 283.875 C-19.54325397 285.43295291 -19.58687031 286.9908958 -19.63085938 288.54882812 C-19.73726039 292.34494922 -19.83872499 296.14117314 -19.9375 299.9375 C-16.3075 300.2675 -12.6775 300.5975 -8.9375 300.9375 C-8.133125 299.390625 -7.32875 297.84375 -6.5 296.25 C-3.18062694 290.67313863 0.36110187 288.66700484 6.0625 285.9375 C9.33380074 283.5906973 11.8999752 281.35201285 14.0625 277.9375 C14.0625 277.2775 14.0625 276.6175 14.0625 275.9375 C12.639375 275.9684375 12.639375 275.9684375 11.1875 276 C8.0625 275.9375 8.0625 275.9375 6.0625 274.9375 C6.0625 272.6275 6.0625 270.3175 6.0625 267.9375 C18.60385356 260.41268786 40.96124034 264.41625509 54.36328125 267.61328125 C66.33615494 270.80719322 76.4291355 276.13513457 86.0625 283.9375 C86.7121875 284.41316406 87.361875 284.88882813 88.03125 285.37890625 C90.53290134 287.26104488 91.93706733 288.60823923 93.0625 291.5625 C93.0625 293.9375 93.0625 293.9375 91.0625 296.9375 C88.125 297.3125 88.125 297.3125 85.0625 296.9375 C83.3125 295.4375 83.3125 295.4375 82.0625 293.9375 C81.4025 293.9375 80.7425 293.9375 80.0625 293.9375 C83.1122159 310.57231399 91.33268251 325.76892391 105.0625 335.9375 C107.85958976 337.83343532 110.68056711 339.64562899 113.57421875 341.390625 C116.0625 342.9375 116.0625 342.9375 119.0625 345.4375 C124.32469397 348.06859698 129.94863944 346.60545747 135.5390625 345.40625 C142.3390058 344.14310264 149.79719802 343.73410306 155.91015625 347.33984375 C158.88297807 349.54653 161.71523455 351.87337019 164.5 354.3125 C165.03302734 354.77052002 165.56605469 355.22854004 166.11523438 355.70043945 C168.71665627 358.09393317 170.00677397 359.74139179 170.98046875 363.16796875 C171.0625 365.9375 171.0625 365.9375 169.9375 367.875 C168.0625 368.9375 168.0625 368.9375 165.86328125 368.87890625 C161.80803689 367.51584643 159.38728504 364.89861372 156.375 361.9375 C150.43209444 356.00721459 150.43209444 356.00721459 142.34912109 354.79931641 C138.44192589 355.03543348 134.69261156 355.78979747 130.875 356.625 C130.09447266 356.77388672 129.31394531 356.92277344 128.50976562 357.07617188 C123.34441039 358.19336067 120.45080748 359.64608332 117.0625 363.9375 C115.03339847 370.4306249 116.36005085 377.46134921 118.0625 383.9375 C120.18078779 386.95445534 122.16542194 388.37522429 125.25 390.30859375 C130.31587459 393.51642552 134.17890318 396.04551726 136.0625 401.9375 C136.75897329 405.93021328 137.0625 409.88684724 137.0625 413.9375 C135.30873047 414.17533203 135.30873047 414.17533203 133.51953125 414.41796875 C131.97119015 414.65256589 130.42302153 414.88830333 128.875 415.125 C127.72161133 415.27678711 127.72161133 415.27678711 126.54492188 415.43164062 C121.23969508 416.27410153 118.54364164 417.58607295 115.0625 421.9375 C113.42161539 425.59793491 113.99687531 430.00001836 114.0625 433.9375 C114.7225 433.9375 115.3825 433.9375 116.0625 433.9375 C117.21196339 432.27340205 117.21196339 432.27340205 118.3125 430.1875 C120.95666476 425.78055874 123.94172047 422.86690175 129.00292969 421.35961914 C132.4024113 420.66287854 135.85499965 420.56131406 139.3125 420.375 C140.05757812 420.33181641 140.80265625 420.28863281 141.5703125 420.24414062 C143.400849 420.13853275 145.23165176 420.03755799 147.0625 419.9375 C147.32728149 418.29551636 147.32728149 418.29551636 147.59741211 416.62036133 C148.25434619 412.54810575 148.91251211 408.47605006 149.57104492 404.40405273 C149.85555942 402.64369015 150.13974256 400.88327397 150.42358398 399.12280273 C150.83229268 396.58823618 151.24220372 394.05386653 151.65234375 391.51953125 C151.77842514 390.73600784 151.90450653 389.95248444 152.03440857 389.1452179 C152.64278108 385.39314084 153.28200007 381.65863867 154.0625 377.9375 C159.47970991 377.57635267 159.47970991 377.57635267 161.80859375 379.01953125 C163.75933914 382.00338167 162.83703163 384.34633828 162.3125 387.8125 C160.13854364 408.59388572 174.69452787 433.68726797 187.37207031 449.57910156 C200.85562076 465.66798115 215.07835335 473.50049791 236.0625 475.6875 C249.7286601 476.51033163 264.380558 474.62062339 276.0625 466.9375 C273.17802145 465.49526072 271.5718633 466.45724304 268.5 467.3125 C251.4277298 471.76878984 231.79438824 471.62097202 216.0625 462.9375 C203.22932752 454.65862867 195.97932179 442.03028248 192.45776367 427.32617188 C191.60660683 422.18242974 191.70964792 416.95149275 191.625 411.75 C191.7518506 368.62927496 191.7518506 368.62927496 174.0625 330.9375 C173.62975656 327.24862601 173.74814703 325.43365619 175.7578125 322.26171875 C192.66848092 303.91010913 215.64113732 295.50305836 240.25537109 294.02197266 C249.52193868 293.74312134 258.81599199 294.36447697 268.0625 294.9375 C268.330625 293.78636719 268.59875 292.63523437 268.875 291.44921875 C273.12381508 273.90890467 279.24166726 257.51471997 290.0625 242.9375 C290.47338867 242.38368652 290.88427734 241.82987305 291.30761719 241.25927734 C306.29612354 221.50170079 327.7264984 209.35799742 352.0625 204.9375 C352.30484375 203.81472656 352.5471875 202.69195312 352.796875 201.53515625 C356.1595724 186.34702956 360.74765173 172.31637117 374.0625 162.9375 C384.12039123 156.72441312 394.56218282 154.83105676 406.0625 152.9375 C399.27483444 136.5853966 383.83523304 126.27139826 368.05859375 119.5 C347.23255173 111.0891857 324.98403092 109.38604508 302.75 109.5625 C301.28852036 109.56648804 301.28852036 109.56648804 299.79751587 109.57055664 C285.02933932 109.61777558 270.63068021 110.33105242 256.0625 112.9375 Z M105.0625 348.9375 C103.60220484 352.95149825 102.16044046 356.97154113 100.73510742 360.99804688 C100.24822576 362.36539039 99.75642274 363.73099229 99.25952148 365.09472656 C98.54394001 367.06131959 97.84660097 369.03360607 97.15234375 371.0078125 C96.72816162 372.19133301 96.30397949 373.37485352 95.86694336 374.59423828 C95.00027637 378.19610103 95.10006497 380.38460043 96.0625 383.9375 C97.79502995 386.72879172 97.79502995 386.72879172 100 389.25 C101.06541016 390.54357422 101.06541016 390.54357422 102.15234375 391.86328125 C103.89461236 394.00146884 103.89461236 394.00146884 106.0625 394.9375 C108.06210012 394.977492 110.06297242 394.98096799 112.0625 394.9375 C111.79695313 394.45023437 111.53140625 393.96296875 111.2578125 393.4609375 C106.49802718 383.9066239 104.66568229 372.43324209 107.0625 361.9375 C108.46117048 358.59285319 110.05487389 355.94893916 112.0625 352.9375 C108.5975 350.9575 108.5975 350.9575 105.0625 348.9375 Z M121.0625 400.9375 C121.7225 402.5875 122.3825 404.2375 123.0625 405.9375 C123.7225 405.6075 124.3825 405.2775 125.0625 404.9375 C124.4025 403.6175 123.7425 402.2975 123.0625 400.9375 C122.4025 400.9375 121.7425 400.9375 121.0625 400.9375 Z M309.72314453 415.828125 C300.11284974 425.75732644 296.86156015 437.31377793 297.0625 450.9375 C305.3827253 447.40188463 311.62562447 439.31262046 315.16796875 431.2265625 C315.46316406 430.47117187 315.75835937 429.71578125 316.0625 428.9375 C316.495625 427.844375 316.92875 426.75125 317.375 425.625 C318.41021085 420.07250542 318.21491012 414.56820713 318.0625 408.9375 C315.35948375 408.9375 311.64888392 413.91547814 309.72314453 415.828125 Z M158.0625 420.9375 C157.89234375 421.56398438 157.7221875 422.19046875 157.546875 422.8359375 C157.30453125 423.65320313 157.0621875 424.47046875 156.8125 425.3125 C156.58046875 426.12460937 156.3484375 426.93671875 156.109375 427.7734375 C154.8410108 430.39535454 153.73826692 430.93132318 151.0625 431.9375 C157.79891962 447.46055391 171.10642817 459.40581964 186.0625 466.9375 C186.7225 466.6075 187.3825 466.2775 188.0625 465.9375 C187.11375 465.07125 186.165 464.205 185.1875 463.3125 C173.7171013 451.72670494 164.70581704 436.18059004 159.0625 420.9375 C158.7325 420.9375 158.4025 420.9375 158.0625 420.9375 Z M139.0625 434.9375 C139.0625 437.5775 139.0625 440.2175 139.0625 442.9375 C139.7225 442.6075 140.3825 442.2775 141.0625 441.9375 C140.7325 439.6275 140.4025 437.3175 140.0625 434.9375 C139.7325 434.9375 139.4025 434.9375 139.0625 434.9375 Z " fill="currentColor" transform="translate(80.9375,13.0625)"/>
    <path d="M0 0 C2 2 2 2 2.375 5.1875 C1.44174871 29.11266945 -14.50734048 52.25824812 -28 71 C-28.52094238 71.73041504 -29.04188477 72.46083008 -29.57861328 73.21337891 C-36.81757031 83.30975773 -44.72569782 92.74125109 -53 102 C-53.82628906 102.92683594 -54.65257812 103.85367188 -55.50390625 104.80859375 C-57.66103254 107.21332062 -59.8299336 109.6069543 -62 112 C-64.31976793 114.59047019 -66.63922608 117.18121095 -68.95703125 119.7734375 C-69.63121094 120.50820312 -70.30539062 121.24296875 -71 122 C-72.02480469 123.11955078 -72.02480469 123.11955078 -73.0703125 124.26171875 C-75 126 -75 126 -78.0625 126.4375 C-81 126 -81 126 -82.9375 124.875 C-84.56822386 121.99725201 -83.81876113 120.13535069 -83 117 C-81.1796875 114.7265625 -81.1796875 114.7265625 -78.875 112.625 C-75.29905143 109.24646184 -71.99521075 105.80805567 -68.796875 102.07421875 C-66.8253757 99.79842282 -64.78865605 97.59077333 -62.75 95.375 C-57.65551283 89.72695226 -53.00047054 83.77450494 -48.35986328 77.75390625 C-47.07445078 76.09602413 -45.77301864 74.45244726 -44.46484375 72.8125 C-29.06644246 53.28996271 -15.01212028 31.31314323 -9.50830078 6.81103516 C-9.06065497 4.86054747 -8.53571558 2.92815917 -8 1 C-5.23749964 -0.38125018 -3.05268901 -0.19079306 0 0 Z " fill="currentColor" transform="translate(351,132)"/>
    <path d="M0 0 C19.36277542 0.49727834 38.16208747 12.69624293 51.0625 26.125 C58.28692611 34.46286813 65.12885987 45.56052222 67.375 56.4375 C67.10546875 59.15234375 67.10546875 59.15234375 66.375 61.4375 C64.125 62.9375 64.125 62.9375 61.375 63.4375 C57.63856104 61.91809365 56.50974837 60.70421524 54.671875 57.06640625 C54.14627715 55.71477332 53.63115166 54.35903465 53.125 53 C46.55940589 36.83628917 35.11451468 25.0295012 19.375 17.4375 C12.94858432 14.84614928 6.30368937 12.84048025 -0.4375 11.25 C-3.625 10.4375 -3.625 10.4375 -5.625 8.4375 C-5.875 5.4375 -5.875 5.4375 -5.625 2.4375 C-3.625 0.4375 -3.625 0.4375 0 0 Z " fill="currentColor" transform="translate(359.625,152.5625)"/>
    <path d="M0 0 C1.19625 0.12375 2.3925 0.2475 3.625 0.375 C6.16984809 3.79094523 7.44873997 7.39021519 8.6875 11.4375 C9.00847656 12.45972656 9.32945312 13.48195312 9.66015625 14.53515625 C11.98880245 23.80260248 12.98908718 32.829855 12.9375 42.375 C12.93121582 43.99414307 12.93121582 43.99414307 12.92480469 45.64599609 C12.72430625 60.12667545 11.91787842 80.93568237 3.625 93.375 C0.5290305 93.77023015 -1.51349162 93.81964948 -4.3125 92.375 C-7.30263745 86.74650598 -3.09886922 75.83698323 -1.8359375 69.796875 C2.3179112 49.5856112 2.30744668 28.7382144 -4.875 9.2109375 C-5.64099587 6.3982964 -5.19940043 4.12300144 -4.375 1.375 C-3.375 0.375 -3.375 0.375 0 0 Z " fill="currentColor" transform="translate(338.375,205.625)"/>
    <path d="M0 0 C0.74733398 0.27593994 1.49466797 0.55187988 2.26464844 0.83618164 C6.69810663 2.6164377 9.42998919 4.34418383 12 8.5625 C11.875 11.3125 11.875 11.3125 11 13.5625 C7.95432082 15.08533959 5.29408166 15.08170727 2 14.5625 C-0.94873161 13.47037718 -3.79620871 12.20915142 -6.671875 10.9375 C-20.49381077 5.22702889 -35.42441665 2.41725843 -50.09765625 6.10546875 C-53.43858793 6.90811558 -55.8429882 7.21814002 -58.875 5.5 C-60.64782183 2.44680685 -59.69235306 -0.10161708 -59 -3.4375 C-39.75681519 -11.20229387 -18.88039738 -7.10821029 0 0 Z " fill="currentColor" transform="translate(124,102.4375)"/>
    <path d="M0 0 C3.04025601 -0.19675978 4.51197215 -0.0491026 6.87109375 1.94140625 C8.13435586 4.86269989 7.89125627 6.27189272 6.87109375 9.25390625 C4.13467959 11.99032041 1.92202417 11.92371781 -1.87890625 12.56640625 C-16.58243586 15.31978355 -30.24569777 20.9316044 -41.86328125 30.5078125 C-44.12890625 32.25390625 -44.12890625 32.25390625 -47.31640625 32.62890625 C-50.12890625 32.25390625 -50.12890625 32.25390625 -52.12890625 30.25390625 C-52.52428686 26.93360772 -52.6642336 25.0226958 -50.72265625 22.234375 C-36.28925309 9.87442715 -18.84867414 2.24800701 0 0 Z " fill="currentColor" transform="translate(466.12890625,246.74609375)"/>
    <path d="M0 0 C3.89828919 1.18579139 4.99501478 2.68391834 7.39453125 5.9375 C12.73357824 12.80577734 18.11097545 18.85802908 25.20703125 23.953125 C25.93656006 24.47849854 26.66608887 25.00387207 27.41772461 25.54516602 C28.88134567 26.58354907 30.3586015 27.60302311 31.84985352 28.60131836 C33.77285064 29.95458949 35.48372351 31.21202804 37.08203125 32.9375 C37.63735247 36.30185486 37.66486367 37.93373305 35.95703125 40.875 C33.09504898 42.49678995 31.21915258 41.70460631 28.08203125 40.9375 C20.31033726 36.43083721 13.58356278 30.08204228 7.08203125 23.9375 C6.35886719 23.2671875 5.63570312 22.596875 4.890625 21.90625 C0.34857468 17.56242958 -4.4097015 12.78312702 -6.91796875 6.9375 C-6.7578125 4.29296875 -6.7578125 4.29296875 -5.91796875 1.9375 C-2.91796875 -0.0625 -2.91796875 -0.0625 0 0 Z " fill="currentColor" transform="translate(202.91796875,159.0625)"/>
    <path d="M0 0 C2 2 2 2 2.5 4.625 C1.97327247 8.18041083 1.42955891 9.00708285 -0.75 11.6875 C-6.09775955 18.3405184 -8.59889123 25.85349914 -8.28515625 34.37890625 C-7.84573172 38.41800018 -7.03821016 42.37448364 -6.14453125 46.3359375 C-6 49 -6 49 -7.44921875 51.3515625 C-8.21685547 52.16753906 -8.21685547 52.16753906 -9 53 C-11.31 52.67 -13.62 52.34 -16 52 C-21.27864817 38.68862636 -21.42773422 26.17756905 -16.12109375 12.78125 C-12.904233 5.78222243 -8.47462767 -2.33052261 0 0 Z " fill="currentColor" transform="translate(59,56)"/>
    <path d="M0 0 C2.25 1.25 2.25 1.25 3.25 2.25 C2.78255063 8.73025696 1.52316399 14.74585234 -0.1875 21 C-0.51331055 22.23556641 -0.51331055 22.23556641 -0.84570312 23.49609375 C-1.92653989 27.52732276 -3.07455359 31.41595519 -4.75 35.25 C-8.215 35.745 -8.215 35.745 -11.75 36.25 C-13.88828341 33.95352725 -14.74344304 32.80324314 -14.78125 29.61328125 C-13.6357003 23.03479365 -12.18781588 16.56690551 -10.4375 10.125 C-10.24929688 9.39063721 -10.06109375 8.65627441 -9.8671875 7.8996582 C-8.86860263 4.44447401 -8.06963146 2.51110739 -5.25390625 0.2109375 C-2.75 -0.75 -2.75 -0.75 0 0 Z " fill="currentColor" transform="translate(391.75,313.75)"/>
    <path d="M0 0 C2.73835284 2.18687299 3.70144251 4.35385421 4.7890625 7.640625 C5.09070313 8.54683594 5.39234375 9.45304687 5.703125 10.38671875 C6.00734375 11.33160156 6.3115625 12.27648437 6.625 13.25 C6.93695313 14.17941406 7.24890625 15.10882813 7.5703125 16.06640625 C11.88796301 29.22407398 11.88796301 29.22407398 10 33 C6.72942503 34.63528748 4.45262923 33.92723449 1 33 C-0.890625 30.2265625 -0.890625 30.2265625 -2.25 26.625 C-2.61375732 25.6824939 -2.61375732 25.6824939 -2.98486328 24.72094727 C-8.45179777 10.20434281 -8.45179777 10.20434281 -8 3 C-5.85607122 -0.27231235 -3.76836426 -0.56525464 0 0 Z " fill="currentColor" transform="translate(185,117)"/>
    <path d="M0 0 C2 2 2 2 2.23046875 4.1015625 C2.13904142 9.47084008 2.03680797 14.72170488 1 20 C-2.23253796 22.15502531 -3.25150923 22.46856135 -7 22 C-8.671875 20.94921875 -8.671875 20.94921875 -10 19 C-10.08240795 16.38649071 -10.01028877 14.07833211 -9.75 11.5 C-9.69714844 10.82324219 -9.64429688 10.14648438 -9.58984375 9.44921875 C-9.33605694 6.45689518 -8.95293071 3.85879212 -8 1 C-5.23749964 -0.38125018 -3.05268901 -0.19079306 0 0 Z " fill="currentColor" transform="translate(184,76)"/>
    <path d="M0 0 C0.94875 0.350625 1.8975 0.70125 2.875 1.0625 C3.82495077 4.14165076 4.13268217 5.53348362 2.6953125 8.484375 C2.13585937 9.25265625 1.57640625 10.0209375 1 10.8125 C0.44570313 11.59109375 -0.10859375 12.3696875 -0.6796875 13.171875 C-2.125 15.0625 -2.125 15.0625 -3.125 16.0625 C-6 16.375 -6 16.375 -9.125 16.0625 C-11.0625 14.375 -11.0625 14.375 -12.125 12.0625 C-12.24965988 7.45008438 -9.49395426 4.78908221 -6.59765625 1.515625 C-4.05133838 -0.99692207 -3.56142114 -1.06842634 0 0 Z " fill="currentColor" transform="translate(408.125,282.9375)"/>
    <path d="M0 0 C3.5625 0.1875 3.5625 0.1875 5.5625 2.1875 C5.9375 5.625 5.9375 5.625 5.5625 9.1875 C3.875 11.1875 3.875 11.1875 1.5625 12.1875 C-1.61208523 12.11007109 -2.97972105 11.5862107 -5.375 9.5 C-6.4375 7.1875 -6.4375 7.1875 -5.6875 4 C-4.00685818 0.2185559 -4.00685818 0.2185559 0 0 Z " fill="#000000" transform="translate(69.4375,287.8125)"/>
</svg>
